<svg width="204.88" height="178.84" version="1.1" viewBox="0 0 204.87999 178.83586" xml:space="preserve" xmlns="http://www.w3.org/2000/svg"><defs><clipPath id="h"><path d="m1152.7 685.06c48.03 46.621 99.48 84.589 148.6 115.08 119.77 300.29 21.22 625.84 21.22 625.84s-170.39-126.86-306.91-343.46c3.02-28.04 4.68-56.61 4.68-85.641 0-249.32-120.92-465.94-195.4-575.73-1.668-66.953 2.176-108.01 2.176-108.01s51.562 24.238 122.27 72.707c33.648 76.675 97.867 196.8 203.37 299.21"/></clipPath><clipPath id="g"><path d="m1015.6 1082.5c-29.129-46.25-56.75-96.563-80.82-150.62-87.168-195.76-106.99-393.2-109.9-510.74 74.485 109.79 195.4 326.41 195.4 575.73 0 29.031-1.66 57.601-4.68 85.641"/></clipPath><clipPath id="f"><path d="m519.78 1081.1c-136.66 217.46-307.78 344.87-307.78 344.87s-98.203-324.31 20.496-624.12c49.977-30.769 102.48-69.277 151.42-116.8 106.43-103.32 170.86-224.69 204.26-301.29 69.175-47.09 119.27-70.625 119.27-70.625s3.883 41.718 2.129 109.63c-74.566 110.29-194.31 326.02-194.31 574.11 0 28.541 1.59 56.661 4.512 84.231"/></clipPath><clipPath id="e"><path d="m519.78 1081.1c-2.922-27.57-4.512-55.69-4.512-84.231 0-248.09 119.75-463.82 194.31-574.11-3.063 117.73-23.094 314.24-109.86 509.12-23.824 53.511-51.117 103.36-79.945 149.22"/></clipPath><clipPath id="d"><path d="m1301.3 800.14c-3.52-8.86-7.21-17.676-11.12-26.473-82.45-185.15-233.64-314.35-340.85-387.81-20.704-47.207-29.825-77.961-29.825-77.961s254.09 14.668 424.49 180.08c170.43 165.43 192.62 418.98 192.62 418.98s-110.12-29.129-235.32-106.81"/></clipPath><clipPath id="c"><path d="m1290.2 773.66c3.91 8.797 7.6 17.613 11.12 26.473-49.12-30.489-100.57-68.457-148.6-115.08-105.5-102.4-169.72-222.53-203.37-299.21 107.21 73.464 258.4 202.66 340.85 387.81"/></clipPath><clipPath id="b"><path d="m244.34 773.66c-4.164 9.383-8.106 18.77-11.84 28.191-124.02 76.387-232.5 105.09-232.5 105.09s22.188-253.55 192.61-418.98c170.41-165.41 424.5-180.08 424.5-180.08s-8.847 29.843-28.925 75.879c-107.36 73.117-260.63 203.01-343.84 389.89"/></clipPath><clipPath id="a"><path d="m383.92 685.06c-48.942 47.519-101.44 86.027-151.42 116.8 3.734-9.421 7.676-18.808 11.84-28.191 83.215-186.89 236.49-316.78 343.84-389.89-33.399 76.601-97.829 197.97-204.26 301.29"/></clipPath></defs><g transform="matrix(1.3333,0,0,-1.3333,0,219.89)"><g transform="scale(.1)" style="paint-order:stroke markers fill"><g clip-path="url(#h)" style="paint-order:stroke markers fill"><path d="m1152.7 685.06c48.03 46.621 99.48 84.589 148.6 115.08 119.77 300.29 21.22 625.84 21.22 625.84s-170.39-126.86-306.91-343.46c3.02-28.04 4.68-56.61 4.68-85.641 0-249.32-120.92-465.94-195.4-575.73-1.668-66.953 2.176-108.01 2.176-108.01s51.562 24.238 122.27 72.707c33.648 76.675 97.867 196.8 203.37 299.21" style="paint-order:stroke markers fill"/></g></g><g transform="scale(.1)" style="paint-order:stroke markers fill"><g clip-path="url(#g)" style="paint-order:stroke markers fill"><path d="m1015.6 1082.5c-29.129-46.25-56.75-96.563-80.82-150.62-87.168-195.76-106.99-393.2-109.9-510.74 74.485 109.79 195.4 326.41 195.4 575.73 0 29.031-1.66 57.601-4.68 85.641" style="paint-order:stroke markers fill"/></g></g><g transform="scale(.1)" style="paint-order:stroke markers fill"><g clip-path="url(#f)" style="paint-order:stroke markers fill"><path d="m519.78 1081.1c-136.66 217.46-307.78 344.87-307.78 344.87s-98.203-324.31 20.496-624.12c49.977-30.769 102.48-69.277 151.42-116.8 106.43-103.32 170.86-224.69 204.26-301.29 69.175-47.09 119.27-70.625 119.27-70.625s3.883 41.718 2.129 109.63c-74.566 110.29-194.31 326.02-194.31 574.11 0 28.541 1.59 56.661 4.512 84.231" style="paint-order:stroke markers fill"/></g></g><g transform="scale(.1)" clip-path="url(#e)" style="paint-order:stroke markers fill"><path d="m519.78 1081.1c-2.922-27.57-4.512-55.69-4.512-84.231 0-248.09 119.75-463.82 194.31-574.11-3.063 117.73-23.094 314.24-109.86 509.12-23.824 53.511-51.117 103.36-79.945 149.22" style="paint-order:stroke markers fill"/></g><g transform="scale(.1)" style="paint-order:stroke markers fill"><g clip-path="url(#d)" style="paint-order:stroke markers fill"><path d="m1301.3 800.14c-3.52-8.86-7.21-17.676-11.12-26.473-82.45-185.15-233.64-314.35-340.85-387.81-20.704-47.207-29.825-77.961-29.825-77.961s254.09 14.668 424.49 180.08c170.43 165.43 192.62 418.98 192.62 418.98s-110.12-29.129-235.32-106.81" style="paint-order:stroke markers fill"/></g></g><g transform="scale(.1)" clip-path="url(#c)" style="paint-order:stroke markers fill"><path d="m947.52 386.65c59.743 135.27 147.28 260.31 263.8 352.58 29.942 23.915 61.502 45.762 94.133 65.84-55.805-143.93-157.88-265.85-276.76-362.46-27.061-22.043-55.167-42.783-84.018-62.419.94987 2.153 1.8997 4.306 2.8496 6.459z" style="paint-order:stroke markers fill"/></g><g transform="scale(.1)" style="paint-order:stroke markers fill"><g clip-path="url(#b)" style="paint-order:stroke markers fill"><path d="m244.34 773.66c-4.164 9.383-8.106 18.77-11.84 28.191-124.02 76.387-232.5 105.09-232.5 105.09s22.188-253.55 192.61-418.98c170.41-165.41 424.5-180.08 424.5-180.08s-8.847 29.843-28.925 75.879c-107.36 73.117-260.63 203.01-343.84 389.89" style="paint-order:stroke markers fill"/></g></g><g transform="scale(.1)" style="paint-order:stroke markers fill"><g clip-path="url(#a)" style="paint-order:stroke markers fill"><path d="m383.92 685.06c-48.942 47.519-101.44 86.027-151.42 116.8 3.734-9.421 7.676-18.808 11.84-28.191 83.215-186.89 236.49-316.78 343.84-389.89-33.399 76.601-97.829 197.97-204.26 301.29" style="paint-order:stroke markers fill"/></g></g><path d="m101.56 108.25c-3.4399 31.978-24.782 56.664-24.782 56.664s-21.406-24.759-24.798-56.805c2.8828-4.586 5.6121-9.5704 7.9945-14.922 8.6762-19.488 10.679-39.14 10.986-50.912 3.3707-4.9863 5.818-7.8183 5.818-7.8183s2.3964 2.7723 5.7101 7.6562c.2914 11.754 2.2735 31.498 10.99 51.074 2.407 5.4062 5.1691 10.438 8.082 15.062" style="paint-order:stroke markers fill"/><path transform="matrix(.75002 0 0 -.75002 0 164.92)" d="m77.229 178.25c-17.422-2.6215-32.536-8.6013-44.842-17.742-4.1821-3.1062-10.801-9.7139-13.915-13.891-7.4138-9.9455-12.843-21.796-16.124-35.198-1.1841-4.8356-2.3875-11.346-2.2301-12.065.066509-.30335.81511-.13828 3.5828.79002 7.3454 2.4637 17.663 7.1504 24.097 10.946 1.6209.95619 2.9746 1.7154 3.0081 1.6871.03354-.0283-.36919-1.2497-.89495-2.7143-7.6505-21.312-8.7899-47.848-3.1756-73.955.50995-2.3713 1.0858-4.7697 1.2797-5.3297l.35255-1.0183 3.239 2.7141c12.608 10.565 25.035 24.437 34.692 38.727 1.5932 2.3575 2.9314 4.0933 2.9962 3.8862.06436-.20582.25623-1.5196.42637-2.9195.4437-3.6508 1.9629-11.021 3.203-15.539 4.6856-17.071 13.549-35.192 24.734-50.563 1.5842-2.1773 3.3-4.4409 3.8128-5.0304l.93246-1.0717.55282.6698c8.9712 10.87 18.79 27.996 24.499 42.733 3.5026 9.0412 6.3115 19.705 7.5334 28.6.25806 1.8786.49678 3.3857.5305 3.349.0337-.03664 1.2214-1.7972 2.6393-3.9123 5.7908-8.6381 11.087-15.261 19.317-24.152 6.0103-6.494 17.89-17.345 18.695-17.076.58112.1937 2.4929 8.893 3.5297 16.061 3.2878 22.732 1.728 44.059-4.5612 62.366-.80197 2.3344-1.4581 4.3167-1.4581 4.405 0 .0883.75353-.30682 1.6745-.87812 7.445-4.6183 19.205-9.9936 27.306-12.482l2.1651-.66491-.18022 1.663c-.0991.91467-.5892 3.7126-1.089 6.2177-3.6971 18.528-12.108 35.466-23.244 46.808-11.845 12.064-29.832 20.747-50.035 24.153-5.0377.8493-7.5018 1.0958-7.5018.75057 0-.41815 1.5575-4.7377 2.6999-7.488.56859-1.3688.88696-2.4034.70749-2.299s-1.4717.93151-2.8716 1.838c-5.4476 3.5277-12.731 7.5893-13.045 7.2749-.0712-.0712-.19737-3.1991-.28046-6.951l-.15108-6.8216-2.2681 3.1162c-3.2481 4.4628-5.1853 6.8138-5.4015 6.5554-1.4107-1.6855-2.7984-3.5056-4.9057-6.4342l-2.5406-3.5308-.13373 6.9537c-.07355 3.8245-.19866 7.0186-.27802 7.098-.33148.33148-9.1887-4.6878-14.024-7.9474l-1.9026-1.2825 1.0663 2.5898c.58649 1.4244 1.4706 3.7067 1.9648 5.0718l.89846 2.482-.86593-.0238c-.47626-.0131-2.373-.25053-4.215-.52769z" style="paint-order:stroke markers fill"/></g></svg>
