<svg style="position: absolute; width: 0; height: 0; overflow: hidden;" version="1.1" xmlns="http://www.w3.org/2000/svg">
<defs>
<symbol id="icon-mail" viewBox="0 0 32 32">
<title>mail</title>
<path d="M29.728 26.848v-13.696q-0.576 0.64-1.248 1.152-4.768 3.68-7.616 6.048-0.896 0.768-1.472 1.184t-1.536 0.896-1.824 0.416h-0.064q-0.832 0-1.824-0.416t-1.536-0.896-1.472-1.184q-2.816-2.368-7.616-6.048-0.672-0.512-1.248-1.152v13.696q0 0.224 0.192 0.416t0.384 0.16h26.304q0.224 0 0.384-0.16t0.192-0.416zM29.728 8.096v-0.448t-0.032-0.224-0.032-0.224-0.096-0.16-0.16-0.128-0.256-0.064h-26.304q-0.224 0-0.384 0.192t-0.192 0.384q0 3.008 2.656 5.088 3.424 2.688 7.136 5.632 0.128 0.096 0.64 0.544t0.8 0.672 0.8 0.544 0.896 0.512 0.768 0.16h0.064q0.352 0 0.768-0.16t0.896-0.512 0.8-0.544 0.8-0.672 0.64-0.544q3.712-2.944 7.168-5.632 0.96-0.768 1.792-2.080t0.832-2.336zM32 7.424v19.424q0 1.184-0.832 2.016t-2.016 0.864h-26.304q-1.152 0-2.016-0.864t-0.832-2.016v-19.424q0-1.184 0.832-2.016t2.016-0.832h26.304q1.184 0 2.016 0.832t0.832 2.016z"></path>
</symbol>
<symbol id="icon-twitter" viewBox="0 0 30 32">
<title>twitter</title>
<path d="M28.928 7.296q-1.184 1.728-2.88 2.976 0 0.256 0 0.736 0 2.336-0.672 4.64t-2.048 4.448-3.296 3.744-4.608 2.624-5.792 0.96q-4.832 0-8.832-2.592 0.608 0.064 1.376 0.064 4.032 0 7.168-2.464-1.888-0.032-3.36-1.152t-2.048-2.848q0.608 0.096 1.088 0.096 0.768 0 1.536-0.192-2.016-0.416-3.328-1.984t-1.312-3.68v-0.064q1.216 0.672 2.624 0.736-1.184-0.8-1.888-2.048t-0.704-2.752q0-1.568 0.8-2.912 2.176 2.656 5.248 4.256t6.656 1.76q-0.16-0.672-0.16-1.312 0-2.4 1.696-4.064t4.064-1.696q2.528 0 4.224 1.824 1.952-0.384 3.68-1.408-0.672 2.048-2.56 3.2 1.664-0.192 3.328-0.896z"></path>
</symbol>
<symbol id="icon-facebook" viewBox="0 0 18 32">
<title>facebook</title>
<path d="M17.12 0.224v4.704h-2.784q-1.536 0-2.080 0.64t-0.544 1.92v3.392h5.248l-0.704 5.28h-4.544v13.568h-5.472v-13.568h-4.544v-5.28h4.544v-3.904q0-3.328 1.856-5.152t4.96-1.824q2.624 0 4.064 0.224z"></path>
</symbol>
<symbol id="icon-github-circled" viewBox="0 0 27 32">
<title>github-circled</title>
<path d="M13.728 2.272q3.712 0 6.88 1.856t4.992 4.992 1.824 6.88q0 4.48-2.624 8.064t-6.752 4.96q-0.48 0.096-0.704-0.128t-0.224-0.544q0-0.032 0-1.376t0-2.4q0-1.728-0.928-2.528 1.024-0.096 1.824-0.32t1.696-0.704 1.44-1.184 0.96-1.856 0.352-2.688q0-2.144-1.408-3.68 0.672-1.632-0.128-3.648-0.512-0.16-1.472 0.192t-1.632 0.8l-0.672 0.416q-1.664-0.48-3.424-0.48t-3.456 0.48q-0.256-0.192-0.736-0.48t-1.504-0.704-1.504-0.224q-0.8 2.016-0.16 3.648-1.408 1.536-1.408 3.68 0 1.504 0.384 2.656t0.928 1.888 1.44 1.184 1.664 0.704 1.824 0.32q-0.672 0.64-0.864 1.856-0.384 0.16-0.8 0.256t-1.024 0.096-1.152-0.384-0.992-1.12q-0.352-0.576-0.864-0.928t-0.896-0.448l-0.352-0.032q-0.384 0-0.512 0.064t-0.096 0.224 0.16 0.256 0.224 0.192l0.128 0.096q0.384 0.192 0.768 0.672t0.576 0.928l0.192 0.416q0.224 0.672 0.768 1.088t1.184 0.544 1.248 0.096 0.992-0.032l0.416-0.096q0 0.704 0 1.6t0.032 0.96q0 0.32-0.256 0.544t-0.704 0.128q-4.128-1.376-6.752-4.96t-2.624-8.064q0-3.744 1.856-6.88t4.96-4.992 6.912-1.856zM5.184 21.984q0.064-0.128-0.096-0.224-0.192-0.032-0.256 0.032-0.032 0.128 0.128 0.224t0.224-0.032zM5.76 22.592q0.128-0.096-0.032-0.288-0.192-0.16-0.288-0.064-0.128 0.096 0.032 0.288t0.288 0.064zM6.272 23.392q0.192-0.128 0-0.352-0.128-0.224-0.288-0.096-0.16 0.096 0 0.32t0.288 0.128zM7.040 24.128q0.128-0.128-0.064-0.32-0.224-0.224-0.352-0.064-0.16 0.16 0.064 0.352 0.192 0.192 0.352 0.032zM8.064 24.576q0.032-0.192-0.256-0.288-0.256-0.064-0.32 0.128t0.224 0.288q0.256 0.096 0.352-0.128zM9.184 24.672q0-0.224-0.32-0.192-0.288 0-0.288 0.192 0 0.224 0.32 0.192 0.288 0 0.288-0.192zM10.208 24.512q-0.032-0.224-0.32-0.16-0.288 0.032-0.256 0.256t0.32 0.128 0.256-0.224z"></path>
</symbol>
<symbol id="icon-rss" viewBox="0 0 25 32">
<title>rss</title>
<path d="M6.848 24q0 1.44-0.992 2.432t-2.432 0.992-2.432-0.992-0.992-2.432 0.992-2.432 2.432-0.992 2.432 0.992 0.992 2.432zM16 26.208q0.032 0.48-0.288 0.832-0.32 0.384-0.864 0.384h-2.4q-0.448 0-0.768-0.288t-0.352-0.736q-0.384-4.096-3.296-7.008t-7.008-3.296q-0.448-0.032-0.736-0.352t-0.288-0.768v-2.4q0-0.512 0.384-0.832 0.288-0.32 0.768-0.32h0.096q2.848 0.224 5.44 1.44t4.64 3.232q2.016 2.016 3.232 4.64t1.44 5.472zM25.152 26.24q0.032 0.48-0.32 0.832-0.32 0.352-0.832 0.352h-2.56q-0.448 0-0.8-0.32t-0.32-0.736q-0.224-3.84-1.824-7.296t-4.128-6.016-6.016-4.128-7.264-1.824q-0.448-0.032-0.768-0.352t-0.32-0.768v-2.56q0-0.512 0.352-0.832 0.32-0.32 0.8-0.32h0.032q4.704 0.256 8.96 2.144t7.616 5.248q3.328 3.328 5.248 7.616t2.144 8.96z"></path>
</symbol>
<symbol id="icon-menu" viewBox="0 0 27 32">
<title>menu</title>
<path d="M27.424 24v2.272q0 0.48-0.32 0.8t-0.832 0.352h-25.12q-0.48 0-0.8-0.352t-0.352-0.8v-2.272q0-0.48 0.352-0.8t0.8-0.352h25.12q0.48 0 0.832 0.352t0.32 0.8zM27.424 14.848v2.304q0 0.448-0.32 0.8t-0.832 0.32h-25.12q-0.48 0-0.8-0.32t-0.352-0.8v-2.304q0-0.448 0.352-0.8t0.8-0.32h25.12q0.48 0 0.832 0.32t0.32 0.8zM27.424 5.728v2.272q0 0.448-0.32 0.8t-0.832 0.352h-25.12q-0.48 0-0.8-0.352t-0.352-0.8v-2.272q0-0.48 0.352-0.832t0.8-0.32h25.12q0.48 0 0.832 0.32t0.32 0.832z"></path>
</symbol>
<symbol id="icon-pinterest-circled" viewBox="0 0 27 32">
<title>pinterest-circled</title>
<path d="M27.424 16q0 3.744-1.824 6.88t-4.992 4.992-6.88 1.856q-1.984 0-3.904-0.576 1.056-1.664 1.376-2.944 0.192-0.608 0.992-3.776 0.352 0.704 1.28 1.216t2.048 0.512q2.176 0 3.872-1.216t2.624-3.36 0.928-4.832q0-2.048-1.088-3.84t-3.072-2.88-4.544-1.152q-1.888 0-3.52 0.544t-2.752 1.376-1.952 1.952-1.184 2.304-0.384 2.4q0 1.856 0.704 3.264t2.112 1.984q0.512 0.224 0.672-0.352 0.032-0.128 0.128-0.544t0.16-0.544q0.096-0.416-0.192-0.768-0.928-1.088-0.928-2.688 0-2.688 1.856-4.64t4.896-1.952q2.688 0 4.224 1.472t1.504 3.808q0 3.040-1.248 5.152t-3.136 2.144q-1.088 0-1.728-0.8t-0.416-1.856q0.128-0.608 0.48-1.664t0.544-1.824 0.192-1.376q0-0.896-0.48-1.472t-1.376-0.576q-1.12 0-1.888 0.992t-0.768 2.56q0 1.28 0.448 2.176l-1.76 7.456q-0.288 1.248-0.224 3.168-3.68-1.632-5.952-5.024t-2.272-7.552q0-3.744 1.856-6.88t4.96-4.992 6.912-1.856 6.88 1.856 4.992 4.992 1.824 6.88z"></path>
</symbol>
<symbol id="icon-gplus" viewBox="0 0 41 32">
<title>gplus</title>
<path d="M25.664 16.288q0 3.744-1.568 6.624t-4.416 4.544-6.592 1.632q-2.656 0-5.088-1.024t-4.192-2.784-2.784-4.192-1.024-5.088 1.024-5.088 2.784-4.192 4.192-2.784 5.088-1.024q5.12 0 8.768 3.424l-3.552 3.424q-2.080-2.016-5.216-2.016-2.208 0-4.064 1.088t-2.944 3.008-1.088 4.16 1.088 4.16 2.944 3.008 4.064 1.088q1.472 0 2.72-0.416t2.048-1.024 1.408-1.376 0.864-1.504 0.384-1.312h-7.424v-4.512h12.352q0.224 1.152 0.224 2.176zM41.152 14.112v3.776h-3.744v3.712h-3.744v-3.712h-3.744v-3.776h3.744v-3.712h3.744v3.712h3.744z"></path>
</symbol>
<symbol id="icon-mail-alt" viewBox="0 0 32 32">
<title>mail-alt</title>
<path d="M32 12.672v14.176q0 1.184-0.832 2.016t-2.016 0.864h-26.304q-1.152 0-2.016-0.864t-0.832-2.016v-14.176q0.8 0.864 1.792 1.568 6.464 4.384 8.896 6.144 1.024 0.768 1.632 1.184t1.696 0.864 1.952 0.416h0.064q0.896 0 1.952-0.416t1.696-0.864 1.632-1.184q3.040-2.176 8.896-6.144 1.024-0.704 1.792-1.568zM32 7.424q0 1.408-0.864 2.688t-2.176 2.208q-6.72 4.672-8.384 5.792-0.16 0.128-0.736 0.544t-0.96 0.704-0.928 0.576-1.024 0.48-0.896 0.16h-0.064q-0.384 0-0.864-0.16t-1.024-0.48-0.96-0.576-0.96-0.704-0.736-0.544q-1.632-1.12-4.704-3.232t-3.648-2.56q-1.12-0.736-2.080-2.048t-0.992-2.464q0-1.376 0.736-2.304t2.112-0.928h26.304q1.152 0 2.016 0.832t0.832 2.016z"></path>
</symbol>
<symbol id="icon-linkedin" viewBox="0 0 27 32">
<title>linkedin</title>
<path d="M6.24 11.168v17.696h-5.888v-17.696h5.888zM6.624 5.696q0 1.312-0.928 2.176t-2.4 0.864h-0.032q-1.472 0-2.368-0.864t-0.896-2.176 0.928-2.176 2.4-0.864 2.368 0.864 0.928 2.176zM27.424 18.72v10.144h-5.856v-9.472q0-1.888-0.736-2.944t-2.272-1.056q-1.12 0-1.856 0.608t-1.152 1.536q-0.192 0.544-0.192 1.44v9.888h-5.888q0.032-7.136 0.032-11.552t0-5.28l-0.032-0.864h5.888v2.56h-0.032q0.352-0.576 0.736-0.992t0.992-0.928 1.568-0.768 2.048-0.288q3.040 0 4.896 2.016t1.856 5.952z"></path>
</symbol>
<symbol id="icon-rss-squared" viewBox="0 0 27 32">
<title>rss-squared</title>
<path d="M9.152 22.848q0-0.928-0.672-1.6t-1.632-0.672-1.6 0.672-0.672 1.6 0.672 1.632 1.6 0.672 1.632-0.672 0.672-1.632zM15.424 24.544q-0.256-4.16-3.168-7.104t-7.072-3.136q-0.256-0.032-0.448 0.16t-0.16 0.416v2.272q0 0.224 0.16 0.384t0.384 0.192q2.752 0.192 4.704 2.176t2.144 4.704q0.032 0.224 0.192 0.384t0.384 0.16h2.304q0.224 0 0.416-0.192t0.16-0.416zM22.272 24.544q-0.096-2.752-0.992-5.312t-2.496-4.64-3.68-3.648-4.64-2.496-5.312-0.992q-0.224-0.032-0.416 0.16-0.16 0.16-0.16 0.416v2.272q0 0.224 0.16 0.384t0.384 0.192q3.648 0.128 6.752 1.984t4.992 4.96 1.984 6.752q0 0.256 0.16 0.416t0.416 0.16h2.272q0.224 0 0.416-0.192 0.192-0.16 0.16-0.416zM27.424 7.424v17.152q0 2.112-1.504 3.616t-3.648 1.536h-17.12q-2.144 0-3.648-1.536t-1.504-3.616v-17.152q0-2.112 1.504-3.616t3.648-1.536h17.12q2.144 0 3.648 1.536t1.504 3.616z"></path>
</symbol>
<symbol id="icon-stackoverflow" viewBox="0 0 27 32">
<title>stackoverflow</title>
<path d="M23.008 29.152h-19.968v-8.576h-2.848v11.424h25.696v-11.424h-2.88v8.576zM6.208 19.776l0.576-2.784 13.984 2.944-0.576 2.784zM8.032 13.12l1.216-2.624 12.928 6.048-1.184 2.592zM11.616 6.752l1.824-2.208 10.976 9.184-1.824 2.176zM18.72 0l8.512 11.456-2.272 1.696-8.544-11.424zM5.888 26.272v-2.848h14.304v2.848h-14.304z"></path>
</symbol>
<symbol id="icon-instagram" viewBox="0 0 27 32">
<title>instagram</title>
<path d="M18.272 16q0-1.888-1.312-3.232t-3.232-1.344-3.232 1.344-1.344 3.232 1.344 3.232 3.232 1.344 3.232-1.344 1.312-3.232zM20.736 16q0 2.912-2.048 4.992t-4.96 2.048-4.992-2.048-2.048-4.992 2.048-4.992 4.992-2.048 4.96 2.048 2.048 4.992zM22.688 8.672q0 0.672-0.48 1.152t-1.184 0.48-1.152-0.48-0.48-1.152 0.48-1.152 1.152-0.48 1.184 0.48 0.48 1.152zM13.728 4.736q-0.128 0-1.376 0t-1.888 0-1.728 0.064-1.824 0.16-1.28 0.352q-0.896 0.352-1.568 1.024t-1.056 1.568q-0.192 0.512-0.32 1.28t-0.192 1.856-0.032 1.696 0 1.888 0 1.376 0 1.376 0 1.888 0.032 1.696 0.192 1.856 0.32 1.28q0.384 0.896 1.056 1.568t1.568 1.024q0.512 0.192 1.28 0.352t1.824 0.16 1.728 0.064 1.888 0 1.376 0 1.344 0 1.888 0 1.728-0.064 1.856-0.16 1.248-0.352q0.896-0.352 1.6-1.024t1.024-1.568q0.192-0.512 0.32-1.28t0.192-1.856 0.032-1.696 0-1.888 0-1.376 0-1.376 0-1.888-0.032-1.696-0.192-1.856-0.32-1.28q-0.352-0.896-1.024-1.568t-1.6-1.024q-0.512-0.192-1.248-0.352t-1.856-0.16-1.728-0.064-1.888 0-1.344 0zM27.424 16q0 4.096-0.096 5.664-0.16 3.712-2.208 5.76t-5.728 2.208q-1.6 0.096-5.664 0.096t-5.664-0.096q-3.712-0.192-5.76-2.208t-2.208-5.76q-0.096-1.568-0.096-5.664t0.096-5.664q0.16-3.712 2.208-5.76t5.76-2.208q1.568-0.096 5.664-0.096t5.664 0.096q3.712 0.192 5.728 2.208t2.208 5.76q0.096 1.568 0.096 5.664z"></path>
</symbol>
<symbol id="icon-tumblr" viewBox="0 0 18 32">
<title>tumblr</title>
<path d="M16.864 23.744l1.408 4.224q-0.384 0.608-1.952 1.184t-3.168 0.576q-1.856 0.032-3.424-0.48t-2.528-1.312-1.696-1.888-0.992-2.144-0.288-2.112v-9.728h-3.008v-3.84q1.28-0.448 2.304-1.248t1.632-1.6 1.024-1.824 0.608-1.76 0.256-1.568q0.032-0.096 0.096-0.16t0.128-0.064h4.352v7.584h5.952v4.48h-5.952v9.248q0 0.544 0.096 0.992t0.416 0.96 0.896 0.736 1.44 0.256q1.408-0.032 2.4-0.512z"></path>
</symbol>
<symbol id="icon-tumblr-squared" viewBox="0 0 27 32">
<title>tumblr-squared</title>
<path d="M20.288 26.080l-1.12-3.264q-0.768 0.384-1.824 0.384-0.64 0.032-1.12-0.16t-0.672-0.576-0.32-0.736-0.096-0.768v-7.104h4.608v-3.456h-4.576v-5.824h-3.36q-0.16 0-0.16 0.16-0.096 0.8-0.32 1.568t-0.704 1.696-1.376 1.696-2.112 1.216v2.944h2.336v7.456q0 1.024 0.384 2.048t1.152 1.984 2.176 1.536 3.136 0.544q1.248 0 2.432-0.448t1.536-0.896zM27.424 7.424v17.152q0 2.112-1.504 3.616t-3.648 1.536h-17.12q-2.144 0-3.648-1.536t-1.504-3.616v-17.152q0-2.112 1.504-3.616t3.648-1.536h17.12q2.144 0 3.648 1.536t1.504 3.616z"></path>
</symbol>
<symbol id="icon-stackexchange" viewBox="0 0 23 32">
<title>stackexchange</title>
<path d="M22.496 22.368v1.184q0 1.504-1.024 2.592t-2.496 1.056h-1.024l-4.64 4.8v-4.8h-9.44q-1.44 0-2.464-1.056t-1.024-2.592v-1.184h22.112zM22.496 16.544v4.576h-22.112v-4.576h22.112zM22.496 10.688v4.576h-22.112v-4.576h22.112zM22.496 8.192v1.184h-22.112v-1.184q0-1.504 1.024-2.56t2.464-1.056h15.104q1.44 0 2.496 1.056t1.024 2.56z"></path>
</symbol>
<symbol id="icon-hacker-news" viewBox="0 0 27 32">
<title>hacker-news</title>
<path d="M14.464 17.92l4.736-8.896h-2.016l-2.784 5.568q-0.448 0.864-0.8 1.632l-0.736-1.632-2.784-5.568h-2.144l4.704 8.8v5.792h1.824v-5.696zM27.424 7.424v17.152q0 2.112-1.504 3.616t-3.648 1.536h-17.12q-2.144 0-3.648-1.536t-1.504-3.616v-17.152q0-2.112 1.504-3.616t3.648-1.536h17.12q2.144 0 3.648 1.536t1.504 3.616z"></path>
</symbol>
<symbol id="icon-facebook-official" viewBox="0 0 27 32">
<title>facebook-official</title>
<path d="M25.92 2.272q0.608 0 1.056 0.448t0.448 1.088v24.384q0 0.64-0.448 1.088t-1.056 0.448h-6.976v-10.656h3.552l0.512-4.128h-4.064v-2.656q0-0.992 0.416-1.472t1.632-0.512l2.176-0.032v-3.68q-1.12-0.16-3.2-0.16-2.4 0-3.872 1.408t-1.44 4.064v3.040h-3.584v4.128h3.584v10.656h-13.152q-0.608 0-1.056-0.448t-0.448-1.088v-24.384q0-0.64 0.448-1.088t1.056-0.448h24.416z"></path>
</symbol>
<symbol id="icon-pinterest" viewBox="0 0 23 32">
<title>pinterest</title>
<path d="M0 10.656q0-1.92 0.672-3.616t1.856-2.976 2.72-2.208 3.296-1.408 3.616-0.448q2.816 0 5.248 1.184t3.936 3.456 1.504 5.12q0 1.728-0.32 3.36t-1.088 3.168-1.792 2.656-2.56 1.856-3.392 0.672q-1.216 0-2.4-0.576t-1.728-1.568q-0.16 0.704-0.48 2.016t-0.448 1.696-0.352 1.28-0.48 1.248-0.544 1.12-0.832 1.408-1.12 1.536l-0.224 0.096-0.16-0.192q-0.288-2.816-0.288-3.36 0-1.632 0.384-3.68t1.184-5.152 0.928-3.616q-0.576-1.152-0.576-3.008 0-1.504 0.928-2.784t2.368-1.312q1.088 0 1.696 0.736t0.608 1.824q0 1.184-0.768 3.392t-0.8 3.36q0 1.12 0.8 1.856t1.952 0.736q0.992 0 1.824-0.448t1.408-1.216 0.992-1.696 0.672-1.952 0.352-1.984 0.128-1.792q0-3.072-1.952-4.8t-5.12-1.728q-3.552 0-5.952 2.304t-2.4 5.856q0 0.8 0.224 1.536t0.48 1.152 0.48 0.832 0.224 0.544q0 0.48-0.256 1.28t-0.672 0.8q-0.032 0-0.288-0.032-0.928-0.288-1.632-0.992t-1.088-1.696-0.576-1.92-0.192-1.92z"></path>
</symbol>
<symbol id="icon-facebook-squared" viewBox="0 0 27 32">
<title>facebook-squared</title>
<path d="M22.272 2.272q2.144 0 3.648 1.536t1.504 3.616v17.152q0 2.112-1.504 3.616t-3.648 1.536h-3.328v-10.656h3.552l0.512-4.128h-4.064v-2.656q0-0.992 0.416-1.472t1.632-0.512l2.176-0.032v-3.68q-1.12-0.16-3.2-0.16-2.4 0-3.872 1.408t-1.44 4.064v3.040h-3.584v4.128h3.584v10.656h-9.504q-2.144 0-3.648-1.536t-1.504-3.616v-17.152q0-2.112 1.504-3.616t3.648-1.536h17.12z"></path>
</symbol>
<symbol id="icon-linkedin-squared" viewBox="0 0 27 32">
<title>linkedin-squared</title>
<path d="M4.224 25.248h4.128v-12.384h-4.128v12.384zM8.64 9.024q-0.032-0.928-0.672-1.536t-1.632-0.608-1.696 0.608-0.672 1.536q0 0.928 0.64 1.536t1.664 0.608v0q1.056 0 1.696-0.608t0.672-1.536zM19.072 25.248h4.128v-7.104q0-2.752-1.312-4.16t-3.424-1.408q-2.432 0-3.744 2.080h0.032v-1.792h-4.128q0.064 1.184 0 12.384h4.128v-6.944q0-0.672 0.128-0.992 0.256-0.608 0.8-1.056t1.312-0.448q2.080 0 2.080 2.816v6.624zM27.424 7.424v17.152q0 2.112-1.504 3.616t-3.648 1.536h-17.12q-2.144 0-3.648-1.536t-1.504-3.616v-17.152q0-2.112 1.504-3.616t3.648-1.536h17.12q2.144 0 3.648 1.536t1.504 3.616z"></path>
</symbol>
<symbol id="icon-circle-left" viewBox="0 0 16 16">
<path d="M8 16c4.418 0 8-3.582 8-8s-3.582-8-8-8-8 3.582-8 8 3.582 8 8 8zM8 1.5c3.59 0 6.5 2.91 6.5 6.5s-2.91 6.5-6.5 6.5-6.5-2.91-6.5-6.5 2.91-6.5 6.5-6.5z"></path>
<path d="M10.457 4.957l-1.414-1.414-4.457 4.457 4.457 4.457 1.414-1.414-3.043-3.043z"></path>
</symbol>
<symbol id="icon-circle-right" viewBox="0 0 16 16">
<path d="M8 0c-4.418 0-8 3.582-8 8s3.582 8 8 8 8-3.582 8-8-3.582-8-8-8zM8 14.5c-3.59 0-6.5-2.91-6.5-6.5s2.91-6.5 6.5-6.5 6.5 2.91 6.5 6.5-2.91 6.5-6.5 6.5z"></path>
<path d="M5.543 11.043l1.414 1.414 4.457-4.457-4.457-4.457-1.414 1.414 3.043 3.043z"></path>
</symbol>
</defs>
</svg>
